<?xml version="1.0" encoding="UTF-8"?>
<svg clip-rule="evenodd" fill-rule="evenodd" stroke-linejoin="round" stroke-miterlimit="2" version="1.1" viewBox="0 0 400 400" xml:space="preserve" xmlns="http://www.w3.org/2000/svg">
    <g transform="translate(-17.02 -31.921)">
        <path d="m217.02 31.921c-110.38 0-200 89.617-200 200s89.617 200 200 200 200-89.617 200-200-89.62-200-200-200zm72.021 28.076c7.548-0.58564 14.924 4.2942 17.441 12.695 1.6093 5.3713 1.4621 7.5361-0.83789 12.359-1.4872 3.1186-4.5576 5.9715-7.9297 7.9023-3.3721 1.9308-7.0506 2.961-9.8516 2.2285-0.52093-0.13625-0.93041-0.22722-1.2539-0.21875-0.32351 0.008279-0.56837 0.085898-0.88281 0.35938-0.6289 0.54693-1.4316 1.9613-2.6328 4.8594-0.88325 2.131-1.8228 4.1506-2.6309 5.6992-0.40404 0.77429-0.77507 1.4297-1.0938 1.9277-0.31868 0.498-0.52744 0.82655-0.85547 1.0293-0.1655 0.10273-0.27599 0.09978-0.41406 0.10937-0.13807 0.00951-0.29622 0.00645-0.48242-0.0039-0.37244-0.02068-0.85865-0.07417-1.4551-0.16016-1.1929-0.1719-2.8238-0.46836-4.7832-0.86523-3.9187-0.79375-9.1488-1.9898-14.75-3.4004-5.5925-1.4084-10.737-2.6298-14.518-3.459-1.8902-0.41458-3.4389-0.73018-4.5274-0.92383-0.41284-0.07343-0.68869-0.11017-0.95898-0.14648 0.12089 0.14156 0.2033 0.25047 0.37891 0.43945 0.61973 0.66697 1.5629 1.6082 2.75 2.748 2.3742 2.2796 5.7288 5.3563 9.4863 8.6719 3.7692 3.3259 7.1512 6.5773 9.5703 9.1484 1.2095 1.2856 2.1775 2.3997 2.8398 3.2774 0.33115 0.43881 0.58601 0.81716 0.75976 1.1426 0.17378 0.3254 0.30546 0.58001 0.23829 0.92578-0.05703 0.29389-0.23241 0.5061-0.46094 0.72852s-0.52703 0.44843-0.89649 0.69141c-0.73889 0.48593-1.7607 1.0325-3.0195 1.623-2.5177 1.1811-5.9787 2.536-9.9258 3.8496-6.5823 2.1906-9.9142 3.0334-11.537 3.8164-0.81147 0.39152-1.1656 0.72432-1.3945 1.2168-0.18482 0.39751-0.25886 1.0902-0.3457 1.8613 2.4793 0 4.0551 0.00311 4.6172 0.00782 0.15533 9.4e-4 0.25695 0.00202 0.32421 0.0039 0.03359 9.4e-4 0.05776 0.00203 0.08204 0.00391 0.01213 9.4e-4 0.0175-7.3e-4 0.05664 0.00586 0.00978 0.0016 0.04456 0.00966 0.04492 0.00976 0 0 0.02175 0.01288 0.03125 0.01758 0.50412 0.00377 1.144 0.00781 3.207 0.00781 4.2447 0 6.9068 0.12931 8.9297 0.65821 2.0229 0.5289 3.3842 1.4799 4.9082 3.0039 2.0578 2.0577 4.0873 6.3342 4.6582 9.7129a0.40618 0.40618 0 0 0 0 0.00196c0.27391 1.6224 0.64536 3.268 1.0156 4.6055 0.37027 1.3374 0.78166 2.406 0.98437 2.6953 0.02051 0.02927 0.15596 0.1677 0.36328 0.33008 0.20733 0.16236 0.49011 0.36358 0.83594 0.59179 0.69169 0.4564 1.6354 1.0242 2.7559 1.6641 2.2409 1.2798 5.1926 2.8426 8.3086 4.373 14.654 7.1975 26.826 17.401 37.111 31.105 8.8848 11.838 16.706 29.853 18.34 42.305 0.87973 6.7038 0.96774 9.5964 1.0762 10.883 0.02709 0.3216 0.05663 0.5383 0.08984 0.66992s0.05694 0.16472 0.08789 0.19727c0.06197 0.06507 0.32949 0.17536 0.84766 0.4668 0.16031 0.09016 0.82218 0.30218 1.6758 0.54492s1.935 0.54447 3.0938 0.93164c2.3176 0.77433 4.9508 1.8777 6.7578 3.5859 8.2241 7.7746 13.359 18.849 14.119 29.73 0.76007 10.882-2.8805 21.597-12.225 28.521-1.8592 1.3779-4.1527 2.8483-6.1816 3.9805-1.0145 0.56608-1.9619 1.0465-2.7617 1.3906-0.79976 0.3441-1.421 0.56446-1.9375 0.56446-0.94805 0-1.4289 0.21522-1.7852 0.83398-0.35621 0.61877-0.54102 1.7495-0.54102 3.5059 0 6.9541-2.6932 13.924-6.8984 19.408-4.2053 5.4846-9.9309 9.4963-16.049 10.475-2.0117 0.32148-3.5662 0.79251-4.6641 1.3945-1.0978 0.60203-1.7323 1.3146-2 2.1582-0.56692 1.7862-1.263 3.2633-3.0273 4.3418-1.7643 1.0785-4.5245 1.774-9.2676 2.252-9.4862 0.9559-26.96 1.0101-60.254 0.95898-17.199-0.02571-33.195-0.19343-45.113-0.44531-5.959-0.12594-10.897-0.27199-14.461-0.43164-1.7818-0.07983-3.2204-0.16214-4.2734-0.24805-0.52653-0.04295-0.95559-0.08759-1.2891-0.13281s-0.5513-0.07875-0.74805-0.1582c-1.8991-0.76702-4.6344-3.0297-6.2949-5.1406-1.5119-1.922-5.1685-4.1026-7.9219-4.6875-6.682-1.4196-14.617-7.2864-18.486-13.633-1.2496-2.0492-2.0043-4.0762-2.4297-7.6328-0.42538-3.5566-0.54088-8.6651-0.55274-17.01-0.02576-18.066-0.64083-32.267-2.6211-40.969-0.99013-4.3506-2.3421-7.3058-4.002-8.6719-0.82993-0.68305-1.7193-0.98966-2.7559-0.93165-1.0366 0.05804-2.2307 0.49874-3.5859 1.3867-2.9681 1.9448-4.351 3.7089-4.3711 5.7363-0.02009 2.0274 1.3726 4.4981 4.3105 7.75 6.5533 7.2537 10.768 16.175 10.811 23.088 0.02064 3.0746-0.49155 5.3153-1.7461 6.8066-1.2546 1.4913-3.2115 2.1445-5.8418 2.1445-4.1456 0-7.8517-3.1409-10.518-8.0625-2.6658-4.9216-4.3277-11.67-4.3848-19.105-0.0365-4.6287-0.09953-6.9648-0.65821-8.2637-0.27933-0.64943-0.65854-1.0611-1.2891-1.4688-0.63051-0.40767-1.5137-0.7893-2.7051-1.2871-3.6902-1.5418-7.0948-1.3376-10.316 0.58399-3.2216 1.9216-6.2564 5.6076-9.0117 11.062-0.57377 1.1359-0.98304 1.9722-1.1094 2.6348-0.12632 0.66258-0.027993 1.1504 0.49414 1.8281 1.0442 1.3555 3.9079 3.2314 9.6367 6.9062 3.1613 2.0279 6.0328 4.0754 8.125 5.75 1.0461 0.83728 1.8952 1.5793 2.4961 2.1894 0.30043 0.30509 0.5391 0.57674 0.71289 0.82227 0.17378 0.24552 0.31054 0.45056 0.31054 0.75 0 0.87472-0.60254 1.8563-1.5039 3.0215-0.90136 1.1652-2.1393 2.4704-3.5254 3.75-2.7721 2.5591-6.1116 5.0129-8.6055 5.9531-5.7941 2.1844-16.131 1.9615-21.789-0.47071-3.0991-1.332-7.2004-4.2577-10.867-7.4648-3.6667-3.2072-6.8779-6.6618-8.1543-9.1856-3.2112-6.3489-3.916-13.73-1.957-20.496 0.72746-2.5126 1.3832-4.4236 2.2012-5.7812 0.81796-1.3577 1.8581-2.1762 3.209-2.3164 1.3508-0.14025 2.9411 0.3472 5.0098 1.3633 2.0686 1.0161 4.6235 2.5791 7.8711 4.6719 5.6674 3.6522 8.5526 5.4499 10.074 5.6836 0.7608 0.11686 1.1467-0.05982 1.6172-0.60351 0.47049-0.5437 0.94666-1.4949 1.5762-2.7891 3.1284-6.4318 7.2472-10.931 11.846-13.186 4.5985-2.2544 9.6761-2.2337 14.572 0.32031 1.0621 0.55406 2.0302 0.92309 2.6875 1.0664 0.32866 0.07165 0.58281 0.07999 0.6836 0.06054 0.03029-0.00583 0.01748-3.3e-4 0.01757 0 0.02611-0.31081 0.14486-0.56936 0.34766-0.92382 0.22369-0.39099 0.53636-0.85593 0.91992-1.377 0.76712-1.042 1.8154-2.3003 2.9707-3.5371 3.4715-3.7163 7.1332-5.303 10.443-5.1055 3.3102 0.19756 6.2183 2.1823 8.1699 5.4082 0.21192 0.35029 0.24059 0.64847 0.40234 1-0.09035-1.6633-0.18649-3.4548-0.18555-6.6602 0.00849-19.416 3.5735-34.911 11.535-50.062 10.047-19.118 29.864-37.468 50.15-46.439 2.2393-0.99031 4.277-2.1051 5.7402-3.0918 0.73163-0.49333 1.3217-0.95537 1.7109-1.3398 0.38927-0.38449 0.52919-0.71679 0.5293-0.74219 0.00895-2.496 0.88992-5.9057 2.1348-9.0723 1.2449-3.1666 2.8315-6.0658 4.4024-7.5293 1.3046-1.2154 2.7265-2.0166 4.7344-2.4902 2.0079-0.47362 4.5992-0.63671 8.3379-0.63672 4.8022 1e-5 7.2175 0.3785 8.2617 0.08985 0.52209-0.14432 0.73046-0.35587 0.95508-0.98828 0.22461-0.63241 0.37927-1.6669 0.5918-3.1992 0.06828-0.49227 0.08895-0.93565 0.34375-1.3828 0.25479-0.44716 0.70971-0.8154 1.5117-1.2168 1.604-0.80278 4.7111-1.8239 11.172-3.8887 3.5458-1.1332 6.7701-2.2696 9.0996-3.1836 1.1648-0.45699 2.1064-0.85881 2.7441-1.1719 0.31044-0.15239 0.54317-0.28195 0.68945-0.37891-0.0422-0.05465-0.07217-0.09818-0.13671-0.17383-0.21091-0.24733-0.53454-0.59598-0.95118-1.0254-0.83328-0.85881-2.0462-2.0472-3.543-3.4746-2.9935-2.8549-7.126-6.6671-11.672-10.744-5.7275-5.1368-9.7518-8.965-12.23-11.654-1.2394-1.3447-2.0902-2.3997-2.5859-3.2227-0.24788-0.4115-0.41108-0.76336-0.47656-1.0977-0.0655-0.33429-0.01058-0.70232 0.23047-0.94336 0.23907-0.23908 0.55473-0.32672 0.94922-0.38477 0.39447-0.057954 0.88163-0.070252 1.4824-0.042968 1.2016 0.054605 2.8545 0.26748 5.0078 0.64453 4.3067 0.75409 10.608 2.163 19.172 4.2695 6.8017 1.6731 13.085 3.1904 17.727 4.2871 2.3208 0.54835 4.231 0.99231 5.5898 1.2969 0.67941 0.15229 1.2238 0.26928 1.6074 0.34765 0.1918 0.03914 0.3438 0.06927 0.45117 0.08789 0.10596 0.01826 0.20601 0.01867 0.13281 0.02149-0.14203 0.00517-0.10403 0.03696-0.04297-0.02344 0.06101-0.06039 0.15798-0.17415 0.26563-0.33008 0.21528-0.31186 0.48705-0.78719 0.78906-1.375 0.60403-1.1756 1.3274-2.8098 2.0117-4.6016 0.60479-1.5836 0.96996-2.6917 1.1309-3.4844 0.16091-0.79268 0.12112-1.2409-0.04297-1.6094-0.32818-0.73702-1.4128-1.3422-2.998-3.0957-7.2439-8.0139-4.999-19.926 4.8574-26.062 2.3808-1.4821 4.9156-2.2833 7.4316-2.4785zm0.97461 9.7383c-4.5934 0-7.9512 3.2095-7.9512 7.5586 0 6.694 9.0838 10.316 13.529 5.4043 2.2684-2.5066 2.5299-5.7349 1.4004-8.3555-1.1295-2.6205-3.6342-4.6074-6.9785-4.6074zm-58.191 79.672v0.00195c-9.8299 0-14.833 0.23311-17.523 1.4277-1.345 0.5973-2.1292 1.4038-2.7578 2.6074-0.62867 1.2036-1.0742 2.8153-1.6367 4.9258-0.37162 1.3941-0.73535 2.3801-0.94141 3.0195-0.10221 0.31705-0.15882 0.55-0.16992 0.66797 0.01502-0.00188 0.04438 0.01284 0.22461-0.00391 0.23003-0.0214 0.57498-0.08313 1.0234-0.17383 0.89693-0.18145 2.2248-0.47553 4.0996-0.77734 4.1462-0.66751 12.014-1.2051 17.566-1.2051 5.5516 0 13.514 0.51354 17.771 1.1484 1.9295 0.28776 3.2947 0.58873 4.2285 0.80273 0.46692 0.10701 0.82727 0.1916 1.0859 0.24024 0.1543 0.02945 0.17822 0.02358 0.25 0.02734-0.01355-0.08016-0.0151-0.13019-0.06055-0.29101-0.14186-0.50189-0.41909-1.3316-0.66406-2.5371-0.43504-2.141-0.85253-3.8229-1.5117-5.1191-0.65918-1.2962-1.5389-2.2194-2.9922-2.9238-2.9066-1.4088-8.1682-1.8379-17.992-1.8379zm4.1894 18.975-0.47266 67.953v67.654h27.102c19.826 0 29.879 0.01058 35.156 3.5938 2.6387 1.7916 3.9981 4.4956 4.6719 8.3691 0.67376 3.8735 0.69922 8.9523 0.69922 15.684 0 7.8111 0.02689 11.755 0.49805 13.412 0.11779 0.41435 0.25775 0.67204 0.39648 0.82227 0.13874 0.15022 0.27184 0.21498 0.48633 0.24414 0.42897 0.05831 1.1805-0.12941 2.207-0.42383 2.2208-0.63663 5.4936-1.9298 7.1758-2.8301 1.5827-0.84705 4.2845-3.6598 5.7793-6.1113 1.277-2.0944 1.9388-3.8517 2.3106-10.197 0.37179-6.3455 0.421-17.205 0.42382-37.287 0.00471-33.731-0.47483-44.971-2.1484-51.576-3.1914-12.597-12.462-30.356-20.564-39.414-14.366-16.061-37.237-27.904-56.934-29.506l-6.7871-0.38672zm-11.84 0.07226c-17.402 0.06839-41.383 11.085-55.926 25.744-10.944 11.032-17.377 21.206-22.719 35.93-1.8805 5.1831-2.8177 7.9008-3.3633 14.656-0.5456 6.7554-0.68584 17.533-0.93164 38.686-0.13724 11.808-0.1669 23.039-0.10546 31.621 0.03068 4.2911 0.0835 7.9201 0.1582 10.625 0.07466 2.7049 0.18356 4.5373 0.2793 5.043 1.1711 6.182 6.2673 11.855 12.764 14.156 1.5738 0.55756 3.1267 1.0713 4.3555 1.4492 0.61438 0.18897 1.1486 0.3445 1.5605 0.45312 0.30562 0.0806 0.45022 0.10307 0.58594 0.12696 0.00376-0.00991 0.00499-0.00687 0.00781-0.01758 0.05895-0.19764 0.12661-0.53436 0.18946-0.97266 0.12573-0.8766 0.24069-2.171 0.33789-3.7734 0.19437-3.2049 0.3164-7.6446 0.3164-12.537 0-8.9077-0.00923-13.359 0.56055-16.137 0.28488-1.3889 0.72843-2.3698 1.3867-3.2188 0.65828-0.84898 1.5092-1.5592 2.6133-2.4883 2.2082-1.8581 3.4805-2.8736 7.748-3.3438 4.2675-0.47012 11.588-0.4668 26.246-0.4668a0.40618 0.40618 0 0 1 0.00391 0l25.533 0.2207v-67.1c0-34.098 0.8432-51.386 1.0137-60.115 0.08524-4.3648-0.02893-6.6102-0.41211-7.6074-0.19159-0.49864-0.38823-0.6734-0.71289-0.79297-0.32466-0.11961-0.82295-0.14345-1.4902-0.14063zm51.904 49.461c0.99879-0.0056 1.9962 0.0388 2.9902 0.13086 7.9522 0.73652 15.651 4.5888 21.486 11.406 10.478 12.241 10.101 29.887-0.88868 41.98-3.796 4.1774-9.557 7.215-15.656 8.7461-6.0992 1.5311-12.544 1.5597-17.729-0.36719-22.94-8.5253-28.712-39.235-10.219-54.479 5.9922-4.9393 13.024-7.3788 20.016-7.418zm-88.648 2.8164c24.709 0 38.135 29.114 21.93 47.57-8.8619 10.093-22.213 13.218-33.902 7.9082-17.872-8.1173-22.64-32.15-9.1797-46.291 6.1492-6.4604 12.421-9.1875 21.152-9.1875zm92.709 2.7773c-0.31595 0.02762-0.52196 0.11413-0.68555 0.25195-0.1636 0.13782-0.29738 0.34549-0.40429 0.66211-0.21378 0.63323-0.28125 1.6741-0.28125 3.0781 0 1.8216-0.15111 3.1391-0.54102 4.0664-0.38992 0.9273-1.1252 1.4609-2.0176 1.4609-0.88388 0-1.618-0.52345-2.0117-1.4238-0.39373-0.90038-0.54882-2.1704-0.54882-3.9062 0-1.1815-0.00987-2.0713-0.08204-2.6953-0.07211-0.62401-0.21215-0.94365-0.35742-1.0762-0.14526-0.13238-0.38278-0.19439-0.90234-0.12891-0.51956 0.06545-1.2618 0.26264-2.2461 0.54492-2.2202 0.63644-5.5174 1.9435-7.2324 2.8613-0.80146 0.42893-1.3971 0.75042-1.7559 1.0137-0.35872 0.26328-0.43507 0.40503-0.43554 0.55469-4.8e-4 0.14967 0.12886 0.46213 0.50781 0.94141s0.9741 1.1147 1.7715 1.9629c2.0646 2.1977 3.0145 4.4861 2.3301 6.2695-0.21367 0.55685-0.41144 0.99274-0.72461 1.3066-0.31317 0.31387-0.8009 0.43322-1.2578 0.29688-0.9138-0.2727-1.9395-1.2232-3.7676-2.9746-1.0366-0.99314-1.8117-1.7346-2.4023-2.209s-0.98372-0.64533-1.1973-0.64062c-0.21353 0.00448-0.41866 0.13625-0.74804 0.60937-0.32939 0.47311-0.72194 1.2359-1.2441 2.2617-1.1362 2.2321-2.5278 5.5425-3.0606 7.2695-0.22385 0.72569-0.35837 1.2757-0.37305 1.6406-0.01464 0.36488 0.04178 0.49664 0.22266 0.63476 0.18089 0.13813 0.58022 0.27004 1.2402 0.33985s1.5686 0.08789 2.7539 0.08789c2.1166 0 3.4267 0.09397 4.2832 0.54687 0.42824 0.22646 0.73657 0.58322 0.86524 1.0117 0.12867 0.42852 0.10182 0.89999 0 1.4375-0.18047 0.95261-0.7977 1.7322-1.7422 2.2715-0.94449 0.53932-2.2141 0.86941-3.8125 1.0234-1.2707 0.12235-2.2068 0.30828-2.7773 0.60157-0.57054 0.2933-0.80365 0.61823-0.84571 1.2695-0.08414 1.3026 0.97761 3.9086 3.2461 8.3652 0.5222 1.0258 0.91445 1.7906 1.2422 2.2695 0.32774 0.47897 0.54015 0.62108 0.73633 0.63281 0.19619 0.01175 0.55587-0.13502 1.1113-0.57617 0.55547-0.44114 1.2866-1.1401 2.2637-2.0762 1.0851-1.0396 2.1826-1.9829 3.0879-2.6738 0.45267-0.34547 0.85857-0.6274 1.1973-0.83008 0.33868-0.20265 0.55732-0.35351 0.90234-0.35351 0.64205 1e-5 1.1655 0.39471 1.3457 0.93359 0.18024 0.53888 0.11832 1.1773-0.08398 1.875-0.40461 1.3954-1.4168 3.0502-2.8613 4.3574-0.95757 0.86661-1.653 1.5624-2.0566 2.1211s-0.50201 0.92808-0.41601 1.2617c0.08594 0.33364 0.41522 0.73693 1.1055 1.2188 0.69025 0.48182 1.7121 1.0306 3.0684 1.6992 3.7545 1.8508 6.1482 2.5533 7.3887 2.2129 0.62021-0.1702 1.005-0.54237 1.291-1.2715 0.28584-0.72871 0.42367-1.8118 0.42383-3.2344a0.40618 0.40618 0 0 0-0.00195-0.00196c0-1.7795 0.15321-3.0722 0.54492-3.9863 0.39172-0.91413 1.1272-1.4434 2.0156-1.4434 0.8883 0 1.6219 0.52924 2.0137 1.4434 0.39176 0.91411 0.54493 2.2068 0.54493 3.9863 0 2.0361 0.16129 3.246 0.51367 3.8477 0.17619 0.30083 0.37825 0.46813 0.69336 0.58984 0.31512 0.12172 0.7526 0.18164 1.3281 0.18164 1.4555 1e-5 4.3279-0.93174 6.7461-2.0605 1.2091-0.5644 2.3181-1.1774 3.1055-1.7266 0.39365-0.27456 0.7061-0.53369 0.90429-0.74805 0.19817-0.21436 0.25-0.38173 0.25-0.38672 0 0.05346-0.04829-0.17072-0.19531-0.43164s-0.37036-0.59858-0.64844-0.97852c-0.55616-0.75988-1.3311-1.6941-2.1836-2.6016-1.2158-1.2942-1.9434-2.2481-2.2051-3.1523-0.2617-0.90425 0.05681-1.7365 0.75781-2.4375 0.70104-0.701 1.5352-1.0215 2.4395-0.75977 0.90426 0.26169 1.8582 0.99124 3.1523 2.207 1.1038 1.037 1.9706 1.7944 2.6523 2.2461 0.68178 0.45165 1.135 0.57449 1.4883 0.48828 0.35333-0.08622 0.73514-0.41983 1.1856-1.1524 0.45042-0.7325 0.94854-1.8278 1.5566-3.2832 0.72681-1.7395 1.2538-3.0844 1.5508-4.1094 0.29703-1.025 0.34782-1.7164 0.21485-2.1406-0.13298-0.42418-0.41691-0.6767-1.0664-0.90234s-1.6315-0.36986-2.9375-0.4961c-1.569-0.15179-2.8224-0.48334-3.7578-1.0234-0.93537-0.5401-1.5509-1.3174-1.7305-2.2656-0.10145-0.53567-0.12801-1.0066-0.00195-1.4336 0.12607-0.42704 0.42953-0.7839 0.85156-1.0117 0.84405-0.45564 2.1321-0.55078 4.2031-0.55078 1.4513 0 2.5559-0.1189 3.3027-0.37696 0.7468-0.25805 1.1185-0.60217 1.2891-1.1543 0.17056-0.55214 0.10991-1.3823-0.24805-2.5293-0.35794-1.147-1.0013-2.5992-1.9121-4.3906-0.80658-1.5864-1.3956-2.7687-1.8789-3.5566-0.48327-0.7879-0.8525-1.1294-1.1211-1.1953-0.26858-0.06599-0.64415 0.0624-1.2852 0.56446-0.64101 0.50205-1.4888 1.3321-2.6426 2.4375-1.3959 1.3373-2.5879 2.159-3.5586 2.5527-0.48534 0.19687-0.91782 0.28827-1.3106 0.25977-0.39273-0.02854-0.75802-0.20458-0.97461-0.51172-0.43317-0.61429-0.29613-1.4919 0.18555-2.5371 0.48168-1.0452 1.3622-2.3013 2.709-3.707 0.95558-0.99742 1.6674-1.7453 2.1074-2.3106 0.44005-0.56529 0.5648-0.91396 0.53516-1.1133-0.02965-0.19933-0.22821-0.45229-0.79883-0.80078-0.57061-0.34849-1.4551-0.76023-2.6406-1.3086-2.5703-1.189-4.5528-2.0749-6.0645-2.6406-1.5116-0.5657-2.5575-0.79742-3.1894-0.74219zm-92.605 2.5156c-3.2375-0.07637-6.4796 0.77249-10.344 2.5273-7.8535 3.5666-12.201 10.011-12.969 19.271-0.83798 10.105 4.0284 18.176 11.232 22.344 7.204 4.1681 16.743 4.4253 25.307-1.2148 6.3633-4.1911 9.7285-11.137 9.7285-20.186 0-8.9627-4.1389-15.428-12.652-19.729-3.8338-1.9368-7.0652-2.9373-10.303-3.0137zm88.881 10.512c0.96394-0.08174 1.9189-0.03138 2.8496 0.14649 3.7228 0.71145 7.0133 3.482 8.9141 8.0312 1.2524 2.9974 1.538 5.7231 0.76953 8.2539-0.76841 2.5308-2.573 4.8361-5.3984 7.0586-2.1 1.6519-3.8382 2.6039-5.7051 2.8672-1.8669 0.26325-3.8096-0.1693-6.2988-1.1738-4.2576-1.7182-6.8704-5.2602-7.5527-9.209-0.68236-3.9488 0.55783-8.3078 3.9238-11.674 2.6344-2.6344 5.6062-4.0555 8.498-4.3008zm-89.027 0.09375c1.2879-0.00535 2.5599 0.18663 3.7676 0.56055 4.8305 1.4957 8.6641 5.9411 8.6641 12.342 0 9.0152-9.2133 15.551-17.275 12.217-3.4947-1.4454-6.0508-4.8995-7.2246-8.6777-1.1739-3.7782-0.97748-7.9237 1.209-10.771 2.9738-3.8732 6.9957-5.6538 10.859-5.6699zm-0.59571 5.1602c-1.3258 0.08669-2.6175 0.90087-4.3184 2.6016-1.67 1.67-2.5349 3.4784-2.6348 5.2109-0.09992 1.7325 0.55161 3.4111 2.0195 4.8789 1.491 1.491 3.9476 2.2024 6.2363 2.1035 2.2887-0.09891 4.3528-1.0062 5.168-2.5293 1.1514-2.1514 1.5571-4.1524 1.2832-5.8848-0.27393-1.7324-1.217-3.216-2.8633-4.3691-2.0804-1.4571-3.5648-2.0984-4.8906-2.0117zm89.484 0.48633c-0.428-0.00747-0.84961 0.02514-1.2598 0.0957-1.6406 0.28223-3.1126 1.1568-4.2031 2.3633-2.1808 2.413-2.8035 6.0986 0.00781 9.2051 1.3281 1.4676 3.5461 2.3782 5.7422 2.5801 2.1961 0.2019 4.3392-0.31385 5.5312-1.5059 1.4162-1.4162 1.913-3.6522 1.5606-5.8652-0.3525-2.213-1.5533-4.3674-3.4219-5.5918-1.3247-0.86795-2.6731-1.2588-3.957-1.2812zm55.908 19.723c-0.08697 0.00791-0.11933 0.02601-0.17578 0.08594-0.11293 0.11994-0.26742 0.52392-0.33008 1.25-0.12536 1.4522 0.02327 4.0861 0.23438 8.1699 0.21111 4.0838 0.47998 9.6334 0.57422 16.996 0.3097 24.196-0.14585 24.266-0.20118 24.572 1.7436-0.60572 4.37-1.9208 6.1309-3.1602 3.6897-2.5968 6.4704-4.3309 8.3047-6.748 1.8343-2.4172 2.7891-5.5521 2.7891-11.104 0-11.646-4.0001-21.461-12.41-27.129-2.2005-1.4829-3.6867-2.5645-4.4824-2.8496-0.19893-0.07131-0.34667-0.0915-0.4336-0.08399zm-221.09 21.717c-0.01223 0.02349-0.01225 0.00959-0.03906 0.11719-0.04392 0.17631-0.08221 0.45458-0.10742 0.81836-0.05043 0.72756-0.05848 1.8029-0.06836 3.2383-0.02391 3.0973 0.64719 8.1544 1.4668 11.107 1.3009 4.6847 4.1258 8.4298 6.5156 9.9824 1.1949 0.77633 2.2242 0.96987 2.8906 0.64453 0.66638-0.32532 1.1777-1.2435 1.1777-3.125 0-1.8677-1.3076-5.7342-3.1953-9.7168-1.8878-3.9826-4.3459-8.1405-6.5606-10.803-0.74347-0.89372-1.3007-1.562-1.6914-1.9473-0.17776-0.1753-0.30747-0.26894-0.38867-0.31641zm-56.523 3.1035c-0.20948 0.03429-0.37723 0.10321-0.51758 0.19922-0.28071 0.19202-0.49575 0.53198-0.65234 1.0859-0.31308 1.1075-0.32488 2.9936-0.2832 5.5195v0.00196c0.11699 6.8496 3.0359 12.617 8.3516 16.506 4.8372 3.5385 9.0125 5.5308 13.006 6.0859 3.9933 0.55515 7.829-0.31049 12.053-2.5723 1.4793-0.79217 2.868-1.666 3.9023-2.4238 0.51715-0.3789 0.94686-0.72979 1.248-1.0195 0.26327-0.25327 0.37001-0.43219 0.4082-0.49805-0.036024-0.0506-0.077364-0.1108-0.16016-0.19922-0.20884-0.22304-0.55339-0.53249-1.0078-0.9082-0.90886-0.75141-2.2636-1.7656-3.9531-2.959-3.3791-2.3868-8.1018-5.5006-13.342-8.7578-5.2137-3.2408-9.1493-5.6748-12.107-7.3379-2.9581-1.6631-4.9551-2.5446-6.1797-2.7129-0.30614-0.04207-0.55614-0.04406-0.76562-0.00976zm176.91 23.723c-29.964 0-44.916 0.16609-52.523 0.66407-3.8038 0.24898-5.7753 0.58908-6.8145 0.99414s-1.1682 0.78854-1.5312 1.4668c-0.16102 0.30086-0.45322 1.1376-0.7539 2.3086-0.30069 1.171-0.62799 2.6969-0.92969 4.4746-0.60343 3.5554-1.1035 8.1186-1.1035 12.879 0 4.7937-0.0865 9.4028-0.07032 12.998 0.00809 1.7976 0.04148 3.343 0.12305 4.5215 0.08158 1.1785 0.24944 2.0266 0.37109 2.2539 0.33835 0.63222 0.59049 0.9994 1.8672 1.3652 1.2767 0.36585 3.5477 0.63532 7.6504 0.81446 8.2054 0.35827 23.749 0.38281 53.715 0.38281 23.194 0 38.744-0.08269 48.648-0.32422 4.9523-0.12076 8.496-0.2805 10.867-0.49023 1.1856-0.10487 2.0774-0.22301 2.6973-0.34961 0.6199-0.1266 0.97348-0.30941 0.99023-0.32617 0.05478-0.05479 0.19155-0.29536 0.30469-0.66797s0.21898-0.87631 0.3125-1.4844c0.18711-1.2161 0.32466-2.8503 0.41601-4.7539 0.18272-3.8072 0.1798-8.699 0.02539-13.59-0.15439-4.8909-0.4573-9.7836-0.87109-13.592-0.2069-1.9041-0.44337-3.5376-0.69727-4.7559-0.12695-0.60913-0.25771-1.1147-0.38867-1.4902-0.13097-0.37553-0.27888-0.62067-0.33984-0.68164-0.03875-0.03875-0.3728-0.22701-0.95899-0.38281s-1.4304-0.31568-2.5566-0.47266c-2.2524-0.31395-5.6365-0.61586-10.432-0.87695-9.5903-0.52218-24.827-0.88477-48.018-0.88477zm-52.275 6.2812c2.0126 0.08601 3.7001 1.234 4.6426 2.8203 1.2566 2.1151 1.2154 5.0443-0.95117 7.2109-0.93742 0.93743-1.9098 1.4992-3.041 1.6328-1.1312 0.13365-2.3812-0.14854-3.9297-0.77344-0.90533-0.3653-1.4953-1.1884-1.8164-2.1602-0.32114-0.97177-0.39196-2.1128-0.25976-3.248 0.13218-1.1352 0.46869-2.2627 1.0059-3.1973 0.53715-0.9346 1.2833-1.6911 2.2441-1.9961 0.7271-0.23077 1.4346-0.31773 2.1055-0.28907zm105.3 0.02539c2.1905 0 3.921 1.0486 4.8164 2.6504 0.89513 1.6018 0.96176 3.7309-0.00976 5.8633-0.90771 1.9922-2.447 3.253-4.1582 3.6172-1.7112 0.36422-3.5732-0.18255-5.0664-1.6758-3.7961-3.796-0.97819-10.455 4.418-10.455z" stroke="#000"/>
    </g>
<text transform="translate(433.42 288.99)" fill="#000000" font-family="sans-serif" font-size="40px" style="line-height:1.25;shape-inside:url(#rect946);white-space:pre" xml:space="preserve"/><g transform="matrix(.94082 0 0 .94082 484.09 325.87)"/><text transform="translate(433.42 288.99)" fill="#000000" font-family="sans-serif" font-size="40px" style="line-height:1.25;shape-inside:url(#rect1046);white-space:pre" xml:space="preserve"/><g transform="translate(582.13 391.2)"/></svg>
