<?xml version="1.0" encoding="UTF-8"?>
<svg clip-rule="evenodd" fill-rule="evenodd" stroke-linejoin="round" stroke-miterlimit="2" version="1.1" viewBox="0 0 400 400" xml:space="preserve" xmlns="http://www.w3.org/2000/svg">
    <g transform="translate(-17.02 -31.921)">
        <path d="m217.02 31.921c-110.38 0-200 89.617-200 200 0 110.22 89.363 199.73 199.53 199.99 0.20713-44.61 0.55296-109.46 0.25586-116.11-2.0371 0.10532-3.7962-4.2297-4.8418-7.7715-1.2875-0.52275-3.1228-0.84659-6.0977-0.73047-4.2386 0.1599-5.2947-0.02535-7.7637-1.3633-2.8598-1.5494-6.2418-2.0099-9.6445-3.2715-1.6778-0.61858-2.6016-0.77463-6.584-1.0859-2.5482-0.19775-6.4113-0.61482-8.5879-0.92187-5.137-0.7225-6.3324-1.444-9.5801 0.0957-13.002 1.188-1.8123-0.20012-15.539 3.6894-6.3425 1.2838-12.206 4.7157-18.008 6.3828-0.79023 0.62328-2.3518 1.6145-3.4688 2.1992-1.1167 0.5852-3.2286 1.804-4.6914 2.7148-4.0559 2.5159-4.1682 2.5842-6.2324 3.7812-2.2896 1.3278-7.8178 3.7654-10.166 4.4785-2.2369 0.68144-8.1575 4.443-10.92 5.9394-3.2107 1.7408-4.5413 2.4807-6.123 3.4043-2.4212 1.4114-3.5428 1.5367-6.2656 3.2285-2.5544 1.5874-8.5544 3.878-10.605 4.0684-1.8778 0.03404-4.0035 0.06986-5.3105-1.5039-1.9365-2.362-2.1139-4.1771-0.76562-7.9199 2.5956-7.2036 3.1196-7.9751 8.2617-12.166 4.4863-3.6558 9.5236-7.8993 12.707-10.709 3.5982-3.1415 7.5641-5.9798 10.627-9.6738 0.55957-0.86363 1.4559-2.0712 1.9824-2.6855 0.70057-0.80962 0.82273-1.0827 0.45703-0.95508-0.79224 0.24389-5.0965-0.04286-6.6836 0.44336-2.2812 0.69633-3.1143-0.23844-2.916-3.3477 0.19675-3.4056 4.058-7.6876 4.4199-8.082 7.6426-8.3396 11.2-11.833 14.045-13.787 2.5628-1.766 4.5442-4.3297 9.2754-8.625 3.8692-3.5125 5.256-4.9036 6.5801-6.6055 0.56023-0.72155 2.6608-2.8467 4.6699-4.7168 11.102-10.353 7.2614-8.1151 13.803-13.158 3.3411-2.5905 6.5428-5.3304 9.6445-8.2129 3.5502-3.1311 6.2477-5.8334 9.7441-9.7559 1.1749-1.3184 8.42-8.1132 9.9863-9.3672 6.7545-5.2232 13.498-10.478 19.752-16.332 1.2947-1.2561 7.2526-5.2272 10.941-7.291 0.83781-0.46911 2.3431-1.48 3.3476-2.25 2.5257-1.9352 6.8713-4.4524 7.3242-4.9512 0.1128-0.15767 1.4647-0.97298 2.998-1.8164 4.3865-2.4186 8.6786-5.0676 13.354-6.8848 4.0977-1.505 4.9698-1.8572 7.6328-3.0898 4.2155-1.9504 8.6789-3.4309 11.121-4.6934 0.93233-0.48375 2.5853-1.3316 3.6758-1.8848 2.7085-1.3756 8.315-6.2372 9.9785-7.3711 2.0559-1.3945 8.2571-6.4801 9.9336-8.1504 2.0277-2.02 1.9963-1.9075 2.8379-9.5625 0.49128-4.472 1.2848-8.7224 2.0801-11.145 1.3949-4.6073 2.6948-9.176 5.4277-13.223 0.75278-1.4669 5.1754-6.5852 6.4531-7.4688 1.8572-1.1662 3.8681-2.026 5.8125-3.0273 2.0178-1.0309 3.0744-1.3774 5.1562-1.6973 0.88628-0.13706 3.4233-0.53337 5.6387-0.88477 4.947-0.78453 5.8138-0.80849 12.744 0.38477 6.4783 1.1156 7.8748 1.635 11.504 4.2852 7.2941 5.3282 8.3164 12.09 11.062 14.109 1.4745 1.1051 4.2585-0.33259 8.4394 4.2559 1.0231 1.1237 3.4732 3.9021 2.0273 7.2852-0.52203 1.3876 7.4191 3.746 10.473 6.7383 1.9695 1.9366 2.3725 3.6366 1.1035 4.6465-3.4244 1.6149-8.3074-1.1107-11.928-1.207-3.2438-0.71959-8.3692-0.92705-10.877-0.44532-2.036 0.39352-12.036 6.4834-14.291 11.803-0.98916 2.338-1.1772 5.0868-0.52734 7.752 0.87394 3.5804 2.65 8.2658 4.1856 11.051 2.1428 3.9826 3.2029 8.3763 4.5664 12.67 2.7179 8.385 2.9584 19.632 3.4062 22.092 0.2908 1.8878-0.52422 9.3909-1.3438 12.373-1.074 3.9022-1.5415 8.2779-2.8008 11.402-0.48687 1.1993-1.1471 3.3006-1.4688 4.6699-0.90258 3.7903-0.79251 2.4856-1.8691 6.4609-0.38553 1.4206-1.2049 3.5122-1.8438 4.707-0.63227 1.1825-1.3903 2.6926-1.6856 3.3594-0.78029 1.7846-2.1911 2.8746-3.5801 5.9297-1.3807 3.0398-4.5986 8.415-4.625 8.707-0.03657 0.60458-4.3151 6.1791-5.2734 6.8691-1.8284 1.488-3.0676 3.5167-4.6621 5.2461-1.9896 2.2694-3.6339 3.6247-7.5254 6.2051-3.1742 2.13-6.1721 4.6378-9.8828 5.7441-3.7088 1.2936-8.5172 2.9531-9.9492 3.416-5.9923 2.3051-11.697 5.2662-17.631 7.7109-10.238 4.821-10.227 4.8056-13.096 5.666-2.1905 0.6562-2.5739 0.87437-3.8164 2.168-2.2508 2.3435-2.446 2.7276-2.5781 4.625-0.03525 0.93655-0.12045 1.7799-0.43945 4.1035-0.35028 1.0813 0.38478-1.7568-0.19727 1.5234-0.26656 0.34714-0.91563 0.86096-1.4355 1.1387-0.52433 0.27547-0.94935 0.62201-0.95508 0.76758l0.40234 114.1c98.937-12.009 175.71-96.321 175.71-198.48 0-110.38-89.62-200-200-200z"/>
    </g>
</svg>
